<svg xmlns="http://www.w3.org/2000/svg" width="28.472" height="28.472" viewBox="0 0 28.472 28.472">
  <path id="Path_8757" data-name="Path 8757" d="M-321.183,636.577a14.256,14.256,0,0,0-14.236,14.238,14.252,14.252,0,0,0,14.236,14.233,14.251,14.251,0,0,0,14.236-14.233,14.255,14.255,0,0,0-14.236-14.238Zm3.544,14.738h-2.318v8.255h-3.432v-8.255h-1.633V648.4h1.633v-1.886a3.216,3.216,0,0,1,3.461-3.463l2.542.01v2.834h-1.843a.7.7,0,0,0-.729.792V648.4h2.615Zm0,0" transform="translate(335.419 -636.577)" fill="#151532"/>
</svg>
