<svg xmlns="http://www.w3.org/2000/svg" width="28.472" height="28.472" viewBox="0 0 28.472 28.472">
  <path id="linkedin" d="M14.236,0A14.236,14.236,0,1,0,28.472,14.236,14.237,14.237,0,0,0,14.236,0ZM10.1,21.521H6.632V11.09H10.1ZM8.366,9.665H8.343a1.807,1.807,0,1,1,.046-3.6,1.808,1.808,0,1,1-.023,3.6ZM22.6,21.521H19.134V15.94c0-1.4-.5-2.359-1.756-2.359A1.9,1.9,0,0,0,15.6,14.849a2.374,2.374,0,0,0-.114.846v5.825H12.018s.045-9.452,0-10.431h3.467v1.477a3.442,3.442,0,0,1,3.125-1.722c2.281,0,3.991,1.491,3.991,4.695Zm0,0" fill="#101433"/>
</svg>
