<svg id="Group_204" data-name="Group 204" xmlns="http://www.w3.org/2000/svg" width="28.472" height="28.472" viewBox="0 0 28.472 28.472">
  <path id="Path_8758" data-name="Path 8758" d="M-286.984,636.577a14.256,14.256,0,0,0-14.236,14.238,14.252,14.252,0,0,0,14.236,14.233,14.251,14.251,0,0,0,14.236-14.233A14.255,14.255,0,0,0-286.984,636.577Zm5.54,11.392.007.37a8.078,8.078,0,0,1-8.133,8.135,8.091,8.091,0,0,1-4.382-1.287,6.318,6.318,0,0,0,.682.039,5.751,5.751,0,0,0,3.551-1.221,2.865,2.865,0,0,1-2.671-1.986,2.808,2.808,0,0,0,.539.054,2.938,2.938,0,0,0,.753-.1,2.865,2.865,0,0,1-2.293-2.805v-.034a2.839,2.839,0,0,0,1.3.358,2.854,2.854,0,0,1-1.272-2.379,2.844,2.844,0,0,1,.385-1.438,8.119,8.119,0,0,0,5.893,2.988,2.888,2.888,0,0,1-.073-.653,2.858,2.858,0,0,1,2.859-2.857,2.855,2.855,0,0,1,2.086.9,5.783,5.783,0,0,0,1.816-.692,2.871,2.871,0,0,1-1.255,1.579,5.626,5.626,0,0,0,1.64-.451A5.722,5.722,0,0,1-281.444,647.969Z" transform="translate(301.22 -636.577)" fill="#101433"/>
</svg>
